<?xml version="1.0" encoding="UTF-8"?>
<svg id="Capa_2" xmlns="http://www.w3.org/2000/svg" viewBox="0 0 168.69 48.59">
  <g id="Capa_1-2" data-name="Capa_1">
    <g>
      <g id="Capa_2-2">
        <path d="M59.75,18.18c-1.18,0-2.25-.19-3.22-.58-.97-.39-1.8-.95-2.49-1.7-.7-.74-1.23-1.66-1.61-2.74s-.57-2.34-.57-3.74.21-2.65.64-3.74,1.01-2.01,1.73-2.75,1.57-1.31,2.54-1.7,2-.58,3.1-.58c.7,0,1.32.05,1.88.14.56.1,1.04.21,1.45.34s.74.26,1.01.39c.26.13.43.23.54.29l-.68,1.93c-.14-.1-.36-.2-.63-.32-.27-.11-.58-.23-.93-.34-.35-.11-.73-.21-1.14-.28-.41-.07-.83-.11-1.24-.11-.89,0-1.68.15-2.4.46-.71.3-1.32.75-1.82,1.33-.5.58-.88,1.29-1.15,2.12s-.4,1.76-.4,2.8.12,1.91.35,2.74c.23.82.58,1.53,1.05,2.12s1.05,1.04,1.76,1.37c.7.33,1.52.48,2.46.48,1.08,0,1.98-.11,2.69-.34s1.24-.43,1.6-.61l.61,1.93c-.11.08-.32.18-.61.3s-.65.24-1.09.35-.95.21-1.52.29-1.21.12-1.89.12v.02Z" fill="#fbfbfb"/>
        <path d="M71.47,4.91c.9,0,1.67.12,2.29.35s1.12.57,1.5.99c.38.43.65.94.81,1.53s.24,1.24.24,1.95v7.87c-.2.04-.46.08-.81.14s-.74.11-1.17.15c-.43.05-.91.1-1.42.13-.51.04-1.01.06-1.51.06-.71,0-1.36-.07-1.96-.21s-1.11-.38-1.55-.69c-.43-.32-.77-.73-1.02-1.24s-.36-1.14-.36-1.86.14-1.29.42-1.79.67-.9,1.15-1.21c.48-.31,1.05-.54,1.7-.68.64-.14,1.32-.22,2.04-.22.23,0,.46.01.7.04.24.02.47.06.69.1.22.04.41.08.57.11s.27.06.34.07v-.63c0-.37-.04-.74-.12-1.1s-.23-.68-.43-.97c-.21-.29-.49-.51-.86-.68-.36-.17-.83-.26-1.42-.26-.74,0-1.39.05-1.95.15-.56.11-.97.21-1.25.33l-.27-1.86c.29-.13.77-.26,1.45-.38.68-.13,1.41-.18,2.2-.18h-.01ZM71.66,16.2c.54,0,1.01-.01,1.42-.04s.76-.07,1.03-.13v-3.76c-.16-.08-.42-.15-.79-.2-.36-.06-.8-.08-1.32-.08-.34,0-.7.02-1.08.07-.38.05-.73.15-1.04.3s-.58.36-.79.63-.32.62-.32,1.05c0,.81.26,1.37.77,1.68.52.32,1.22.47,2.11.47h0Z" fill="#fbfbfb"/>
        <path d="M82.97,16.19c.92,0,1.6-.13,2.05-.36s.67-.63.67-1.16-.22-.98-.65-1.31c-.43-.32-1.16-.68-2.16-1.09-.48-.19-.95-.39-1.39-.6-.44-.2-.83-.44-1.15-.71s-.58-.61-.77-.99-.29-.86-.29-1.43c0-1.11.41-2,1.23-2.65.82-.65,1.95-.98,3.36-.98.36,0,.71.02,1.07.06.36.04.68.09.99.14s.58.12.81.18c.23.07.42.13.55.17l-.41,1.93c-.24-.13-.62-.26-1.14-.4-.52-.14-1.14-.2-1.86-.2-.63,0-1.18.13-1.65.38-.47.25-.7.64-.7,1.17,0,.27.05.52.15.73.11.21.27.4.48.57.22.17.49.33.81.47s.71.3,1.16.46c.6.23,1.13.45,1.6.67.47.21.87.47,1.2.76.33.29.58.64.76,1.05s.27.92.27,1.51c0,1.16-.43,2.04-1.29,2.64-.86.6-2.1.89-3.69.89-1.11,0-1.98-.1-2.61-.28s-1.06-.33-1.29-.42l.41-1.93c.26.1.67.24,1.23.43.57.2,1.32.29,2.25.29h.01Z" fill="#fbfbfb"/>
        <path d="M91.96,2.95c-.4,0-.74-.13-1.03-.4-.28-.27-.42-.63-.42-1.08s.14-.81.42-1.08.63-.4,1.03-.4.74.14,1.03.4.42.63.42,1.08-.14.81-.42,1.08c-.28.27-.63.4-1.03.4ZM93.09,17.82h-2.25V5.23h2.25v12.59Z" fill="#fbfbfb"/>
        <path d="M96.97,5.59c.52-.13,1.2-.27,2.06-.41s1.84-.22,2.95-.22c1,0,1.83.14,2.49.42.66.29,1.19.68,1.58,1.18.4.51.67,1.12.83,1.83.16.71.24,1.49.24,2.35v7.07h-2.25v-6.58c0-.77-.05-1.43-.15-1.99-.11-.55-.28-.99-.52-1.33-.24-.34-.57-.58-.97-.74-.4-.15-.9-.23-1.5-.23-.24,0-.49,0-.75.02-.26.02-.51.04-.74.06s-.45.05-.63.08-.32.06-.4.07v10.63h-2.25V5.58h0Z" fill="#fbfbfb"/>
        <path d="M121.98,11.52c0,1-.14,1.91-.43,2.71-.29.81-.7,1.5-1.22,2.08s-1.15,1.03-1.88,1.35-1.52.47-2.37.47-1.65-.15-2.38-.47c-.73-.32-1.35-.76-1.88-1.35-.52-.58-.93-1.27-1.22-2.08-.29-.8-.43-1.71-.43-2.71s.14-1.88.43-2.7c.29-.82.7-1.51,1.22-2.1s1.15-1.03,1.88-1.35,1.52-.47,2.38-.47,1.65.15,2.37.47c.73.32,1.35.76,1.88,1.35.52.58.93,1.28,1.22,2.1s.43,1.71.43,2.7ZM119.63,11.52c0-1.42-.32-2.55-.96-3.38-.64-.83-1.51-1.25-2.6-1.25s-1.96.42-2.6,1.25c-.64.83-.96,1.96-.96,3.38s.32,2.55.96,3.38,1.51,1.25,2.6,1.25,1.96-.42,2.6-1.25c.64-.83.96-1.96.96-3.38Z" fill="#fbfbfb"/>
        <path d="M61.25,24.31c-1.86,0-3.2.52-4.02,1.54-.83,1.03-1.24,2.44-1.24,4.23,0,.87.1,1.66.3,2.36s.51,1.32.92,1.82c.41.51.92.9,1.53,1.19s1.33.42,2.14.42c.44,0,.82,0,1.14-.02s.59-.05.83-.1v-6.15h3.98v8.75c-.48.19-1.24.39-2.3.6-1.05.21-2.36.32-3.91.32-1.33,0-2.53-.21-3.61-.61-1.08-.41-2.01-1.01-2.77-1.79s-1.36-1.74-1.77-2.89c-.42-1.14-.63-2.44-.63-3.91s.23-2.79.69-3.93c.46-1.14,1.09-2.11,1.89-2.9s1.74-1.39,2.82-1.8c1.08-.41,2.23-.61,3.46-.61.83,0,1.58.05,2.26.17.67.11,1.25.24,1.74.38s.89.29,1.2.45.54.27.68.36l-1.15,3.19c-.54-.29-1.17-.54-1.88-.75-.71-.21-1.48-.32-2.31-.32h0Z" fill="#fbfbfb"/>
        <path d="M75.73,21.05c2.66,0,4.69.47,6.1,1.42,1.41.95,2.12,2.41,2.12,4.41,0,1.24-.29,2.25-.86,3.02s-1.39,1.38-2.46,1.82c.36.45.73.95,1.13,1.52.39.57.78,1.17,1.16,1.79s.75,1.27,1.11,1.94c.36.67.69,1.33.99,1.98h-4.45c-.33-.58-.65-1.17-.99-1.76s-.67-1.17-1.02-1.73c-.35-.57-.7-1.1-1.04-1.6-.34-.5-.68-.96-1.02-1.37h-1.96v6.46h-3.98v-17.44c.87-.17,1.77-.29,2.69-.36.93-.07,1.76-.1,2.49-.1h0ZM75.96,24.44c-.29,0-.55.01-.78.03s-.45.04-.65.05v4.8h1.13c1.5,0,2.57-.18,3.21-.56.65-.38.97-1.01.97-1.92s-.33-1.48-.98-1.85c-.65-.36-1.62-.55-2.9-.55h0Z" fill="#fbfbfb"/>
        <path d="M100.23,38.94c-.2-.61-.41-1.24-.64-1.89-.23-.65-.45-1.29-.68-1.93h-6.91c-.23.64-.45,1.29-.67,1.94s-.43,1.28-.63,1.89h-4.14c.67-1.91,1.3-3.67,1.89-5.29.6-1.61,1.18-3.14,1.75-4.57.57-1.43,1.14-2.79,1.69-4.07s1.13-2.54,1.73-3.77h3.77c.58,1.23,1.16,2.48,1.72,3.77.57,1.29,1.13,2.64,1.7,4.07s1.16,2.95,1.76,4.57c.6,1.62,1.23,3.38,1.9,5.29h-4.26.01ZM95.45,25.26c-.09.26-.22.61-.39,1.05-.17.44-.36.95-.58,1.54-.22.58-.46,1.21-.73,1.92-.27.7-.54,1.43-.82,2.19h5.06c-.27-.77-.54-1.5-.79-2.2-.26-.7-.49-1.34-.72-1.92s-.43-1.09-.6-1.53c-.17-.44-.31-.79-.42-1.04h0Z" fill="#fbfbfb"/>
        <path d="M118.63,38.94c-1.14-2.02-2.38-4.02-3.7-6-1.33-1.97-2.74-3.83-4.24-5.59v11.59h-3.93v-17.69h3.24c.56.57,1.18,1.25,1.86,2.07s1.38,1.69,2.08,2.61c.71.93,1.41,1.89,2.11,2.89.7.99,1.35,1.95,1.96,2.87v-10.44h3.96v17.69h-3.35Z" fill="#fbfbfb"/>
        <path d="M131.35,38.94c-.7-1.48-1.4-3.02-2.08-4.63-.68-1.6-1.33-3.18-1.95-4.75s-1.18-3.06-1.7-4.49-.96-2.71-1.34-3.83h4.39c.33,1.02.7,2.13,1.11,3.31.4,1.18.82,2.36,1.24,3.53.42,1.17.82,2.3,1.21,3.37s.75,2,1.11,2.79c.33-.78.7-1.7,1.1-2.77.39-1.07.8-2.2,1.22-3.37.42-1.17.83-2.35,1.24-3.53.4-1.18.77-2.29,1.11-3.32h4.24c-.39,1.13-.85,2.41-1.37,3.83-.52,1.43-1.08,2.92-1.69,4.49s-1.26,3.15-1.94,4.75c-.68,1.6-1.37,3.14-2.07,4.62h-3.8,0Z" fill="#f1931a"/>
        <path d="M149.65,16.6l-4.2,3.55-1.75-1.56,3.61-4.13,2.33,2.14h0ZM144.5,21.25h3.98v17.69h-3.98v-17.69Z" fill="#f1931a"/>
        <path d="M164.43,38.94c-.2-.61-.41-1.24-.64-1.89-.23-.65-.45-1.29-.67-1.93h-6.91c-.23.64-.45,1.29-.67,1.94s-.43,1.28-.63,1.89h-4.14c.67-1.91,1.3-3.67,1.89-5.29.6-1.61,1.18-3.14,1.75-4.57s1.14-2.79,1.69-4.07,1.13-2.54,1.73-3.77h3.77c.58,1.23,1.16,2.48,1.72,3.77.57,1.29,1.13,2.64,1.7,4.07s1.16,2.95,1.76,4.57c.6,1.62,1.23,3.38,1.9,5.29h-4.26,0ZM159.64,25.26c-.09.26-.22.61-.39,1.05s-.36.95-.58,1.54-.46,1.21-.73,1.92c-.27.7-.54,1.43-.82,2.19h5.06c-.27-.77-.54-1.5-.79-2.2-.26-.7-.49-1.34-.72-1.92s-.43-1.09-.6-1.53-.31-.79-.42-1.04h0Z" fill="#f1931a"/>
      </g>
      <path id="Trazado_19" d="M23.33,38.51h0s.01,0,.01,0h-.01ZM23.56,41.42v.13c.11-.01.29-.02.32-.02l-.32-.11ZM14.66,42.41l.23-.3c-.1-.27-.08-.57.07-.82l.02-.05c.06-.12.14-.25.2-.35.01-.03.03-.05.04-.07.08-.12.2-.2.34-.23.04,0,.07-.01.11-.01.09,0,.19.03.27.07h0s.07.05.09.07c.27,0,.53-.01.8-.05.16-.02.31-.03.43-.04l6.26-.13.02.91.33.11c-.11.34-.23.69-.67.7l-6.26.13c-.07,0-.2.02-.35.03-.2.02-.41.04-.63.05l-.02.04s-.03.08-.07.15l-.04.08c-.04.1-.1.2-.16.3l-.03.04-.53.68c-.18.23-.51.27-.74.09-.23-.18-.27-.51-.09-.74.02-.03.03-.07.04-.1l.11-.23c.04-.1.1-.2.16-.3l.03-.04ZM8.92,21.39v-.56c.01-.22.02-.43.04-.61.02-.2.04-.4.06-.64.02-.22.05-.43.08-.65h0c.03-.21.07-.43.11-.65.04-.22.09-.44.14-.65.07-.26.15-.53.24-.8s.19-.53.29-.77.21-.5.33-.75.24-.5.35-.73l.04-.06c.17-.27.52-.37.81-.24h0c.32.15.47.53.32.85l-.02.04c-.12.27-.24.54-.34.83s-.2.57-.29.86-.16.58-.22.87-.12.59-.15.88c-.07.52-.12,1.05-.15,1.58-.04.56-.06,1.09-.08,1.61l-.02.49c0,.17-.03.33-.06.49-.03.16-.08.33-.13.49l-.02.04c-.05.14-.12.28-.19.4-.08.14-.17.26-.28.38-.16.16-.34.3-.55.39-.17.08-.34.15-.52.21h-.01c-.1.04-.19.08-.25.1l-.26.12-.25.13-.24.14-.24.15c-.2.13-.4.27-.6.41-.2.15-.39.31-.58.48l-.03.03c-.16.15-.31.32-.44.49-.13.16-.23.34-.31.53-.14.35-.2.73-.16,1.11.05.45.2.89.42,1.28.28.5.63.95,1.04,1.34.4.39.87.72,1.37.97h.02c.32.17.44.56.28.88-.04.08-.08.16-.12.25-.04.1-.09.2-.14.29-.07.15-.17.28-.29.38l-.07.05c-.04.41-.01.83.08,1.24v.04c.04.19.07.38.08.53.02.2.04.4.04.6,0,.21-.03.42-.08.62-.05.19-.11.37-.16.55h0c-.15.45-.29.91-.08,1.08.46.37.21.79-.03,1.19l-.02.03c-.06.1-.15.17-.25.23l-.12.15c-.18.23-.51.26-.74.08,0,0,0,0,0,0-.91-.74-.62-1.55-.34-2.33.03-.09.06-.18.09-.27.02-.07.04-.13.05-.18.06-.45.04-.91-.07-1.35h0c-.08-.38-.12-.77-.13-1.15,0-.18.01-.36.04-.54.03-.19.07-.37.13-.55.04-.14.09-.28.15-.42-.16-.11-.31-.22-.46-.34-.6-.48-1.12-1.06-1.53-1.71-.21-.33-.38-.67-.53-1.03-.25-.61-.33-1.27-.24-1.93.04-.3.11-.6.22-.9.1-.29.22-.57.36-.85.13-.26.28-.51.44-.76.16-.24.33-.47.51-.7l.03-.03c.18-.21.36-.41.56-.6.21-.2.43-.39.67-.57h0c.11-.09.24-.18.38-.27.13-.09.26-.17.39-.25h0c.12-.07.25-.15.4-.22s.28-.14.4-.2c.13-.06.28-.12.42-.17.11-.04.22-.09.33-.14.04-.41.04-.84.05-1.26h0v-.05ZM37.59,29.11c-.05.06-.1.12-.16.18-.04.06-.09.1-.14.14-.07.04-.14.09-.21.14-.24.16-.57.09-.73-.15h0c-.64-.92-1.55-1.62-2.6-2-1.13-.42-2.3-.74-3.49-.94l-.23-.05c-1.44-.3-2.89-.51-4.35-.63-1.43-.12-2.87-.15-4.3-.09-1.4.06-2.79.22-4.17.47-1.1.18-2.18.49-3.21.92-.26.13-.57.02-.7-.24l-.11-.22c-.1-.21-.06-.45.11-.61-.05-.01-.05-.01,0,0h-.04c.03-.13.07-.24.12-.35.08-.18.22-.33.4-.41,1.15-.44,2.36-.74,3.59-.89,1.62-.25,3.25-.4,4.89-.45,1.57-.06,3.15-.03,4.71.09,1.48.11,2.96.31,4.41.61.59.12,1.18.25,1.75.41.59.16,1.17.37,1.73.61.57.25,1.11.58,1.6.96.51.4.96.89,1.32,1.44l.03.06c.11.21.11.46,0,.67-.06.12-.13.24-.22.35M19.79,28.31s.04,0,.05-.01c.18-.04.37-.07.55-.07.1-.03.2-.05.3-.05.2,0,.39.07.52.21.15.15.23.36.2.56h0c-.01.13-.05.26-.11.37-.02.1-.04.2-.06.31-.03.18-.06.36-.09.55l-.08.61c-.05.38-.09.76-.16,1.15-.07.4-.16.8-.29,1.18-.06.16-.14.32-.23.46l-.02.04c-.03.05-.06.11-.09.17-.09.28-.39.43-.66.34,0,0,0,0,0,0-.08-.03-.16-.05-.23-.08-.28-.09-.43-.39-.34-.66,0,0,0,0,0,0,.2-.67.33-1.36.39-2.05v-.04c.03-.17.05-.35.08-.61.02-.14.04-.28.06-.42h-.04c-.06.02-.11.02-.17.03-.18.02-.35.03-.5.04-.15,0-.31.02-.5.02-.16,0-.32.01-.5.01h-.5c-.17,0-.33-.07-.45-.19-.05-.05-.09-.11-.12-.17l-.02.17c-.02.25-.03.51-.05.78-.01.41-.04.81-.09,1.21-.06.44-.18.88-.36,1.28-.05.1-.12.24-.19.37l-.03.06c-.04.08-.08.16-.11.21-.12.26-.43.38-.7.26l-.22-.1c-.26-.12-.38-.43-.26-.7.13-.3.22-.62.26-.94.04-.35.07-.71.08-1.07.01-.28.02-.55.04-.78l.03-.26-.33.07c-.21.05-.42.1-.62.15-.24.06-.44.11-.62.16-.28.08-.57-.08-.65-.36l-.07-.24c-.04-.13-.02-.27.04-.38l.05-.16c.09-.33.19-.65.62-.78.25-.07.47-.13.67-.18.22-.06.45-.11.67-.16.2-.04.43-.09.67-.14.25-.04.48-.08.69-.11h.04c.05-.01.1-.01.15,0h.05s.1.04.14.06c.02.01.05.03.07.04.12.08.21.2.26.34,0,.02.02.05.02.07l.05-.09c.12-.25.37-.4.64-.4h.94c.14-.02.29-.03.46-.04s.33-.02.46-.04c.04,0,.11-.02.18-.03M21.67,29.11c.04-.13.1-.26.16-.38.11-.24.36-.4.62-.4h.09c.24.03.47.05.71.06.25.01.5.02.73.02.24,0,.48,0,.73-.01s.47-.03.7-.05c.06,0,.13,0,.19,0h.07s.09.04.13.06h.02c.3.18.42.56.26.87l-.15.31-.02.07c-.02.05-.04.11-.06.15l-.06.11v.21c0,.14.01.29.01.43,0,.23.01.46,0,.69h0c0,.2-.02.39-.04.58-.02.2-.04.4-.07.58s-.07.39-.12.58-.1.39-.17.58c-.03.09-.07.18-.11.27-.03.05-.07.13-.12.2l-.08.14s-.02.05-.03.07c-.09.27-.39.42-.67.33l-.23-.08c-.28-.09-.42-.39-.33-.66h0c.21-.73.3-1.49.28-2.25,0-.02,0-.04,0-.06,0-.24.01-.49.02-.71,0-.15.02-.3.03-.46-.21,0-.42,0-.63,0-.26,0-.51-.01-.74-.02s-.49-.03-.74-.06c-.29-.03-.5-.28-.47-.57,0,0,0,0,0,0l.02-.24v-.08c.01-.1.03-.2.06-.29M36.81,30.94s.05.04.08.05c.04.02.07.04.11.05h.01c.33.14.49.51.36.84l-.03.06s-.05.08-.08.12c-.01.05-.03.09-.05.14l-.02.04c-.06.13-.12.25-.19.36-.14.31-.5.45-.81.32-.11-.04-.21-.09-.31-.15h0c-.1-.06-.19-.12-.27-.2h0c-.08-.07-.15-.15-.22-.23-.06-.08-.13-.16-.18-.25-.04-.06-.07-.11-.11-.17l-.18.03c-.21.05-.42.06-.63.03-.91-.14-.89-.44-.85-1.04v-.14s-.04,0-.1-.02c-.23-.08-.46-.13-.69-.17l-.19-.03-.19-.04-2.29-.55c.04.14.09.28.12.42.04.16.08.32.11.48.04.16.07.33.1.5.02.15.05.32.07.5.02.17.04.34.06.51.02.18-.02.36-.11.52-.06.1-.12.19-.19.28l-.04.06c-.06.35-.4.59-.75.52-.29-.05-.51-.29-.53-.59h0c-.01-.17-.04-.34-.06-.52s-.05-.35-.09-.52v-.02c-.03-.15-.07-.32-.1-.49-.04-.16-.08-.34-.13-.52v-.04c-.09-.27-.15-.55-.18-.84-.03-.34.03-.69.17-1.01.06-.14.14-.27.2-.39l.09-.16.05-.1c.12-.26.43-.38.69-.27l.21.1.04-.07.02-.03c.14-.26.44-.39.72-.31.94.23,1.91.5,2.85.68.03,0,.06,0,.09.02.72.13,1.6.31,1.69,1.28h0c.12-.02.24-.04.37-.04.19,0,.38.03.56.11.27.12.49.34.6.61l.06.1s.04.06.07.09l.02.02.05.04ZM16.39,38.82c.03-.13.08-.25.14-.37.09-.21.28-.37.5-.43l.15-.04c.12-.04.24-.08.35-.14l.1-.08c.24-.24.57-.38.92-.37h.04c.07.03.13.05.19.09.06-.09.12-.19.2-.27.09-.1.19-.2.3-.27.14-.1.3-.17.47-.2.17-.03.35-.02.52.02.06.01.11.03.16.06l.15.08c.15.08.28.19.38.32.1.12.18.27.22.42l.02.1c.11-.14.26-.24.43-.29.2-.05.41-.01.58.11.07.05.13.1.18.17l.42-.16c.27-.1.58.03.68.31.08.2.02.43-.14.58v.05s0,0,0,0c-.02.05-.03.09-.06.13v.04c-.08.24-.24.44-.46.55-.02,0-.49.17-.58.22-.28.19-.66.15-.89-.1l-.04-.04-.04-.05c-.17,0-.32-.07-.43-.21l-.05.09s-.06.09-.09.12l-.06.06s-.08.09-.13.12c-.07.06-.15.11-.23.15l-.06.03c-.1.04-.21.07-.32.09-.12.02-.25.03-.37.02-.1,0-.2-.04-.29-.1-.39.23-.87.18-1.21-.12h0c-.08.06-.17.1-.26.15-.08.04-.17.08-.26.11s-.18.07-.25.09c-.07.02-.15.05-.25.07-.28.07-.57-.1-.64-.38l-.06-.24c-.03-.12-.02-.25.04-.36l.04-.15ZM37.2,40.03c-.02.05-.05.1-.09.15-.1.25-.38.36-.63.26-.02,0-.03-.01-.05-.02l-.1-.05h-.01l-.27.06c-.12.03-.24.02-.35-.04-.26-.09-.42-.34-.41-.61l-.19-.02c-.24,0-.48-.07-.69-.19l-.04-.03c-.12-.09-.22-.2-.28-.34l-.02-.06c-.09-.15-.1-.34-.01-.5h0c.01-.06.03-.1.05-.15-.05.03-.09.07-.14.11l-.04.07c-.14.25-.46.35-.71.21-.12-.07-.21-.18-.25-.31-.11.31-.43.49-.75.42-.3-.06-.58-.22-.77-.46-.04-.04-.08-.08-.12-.12-.03-.02-.06-.04-.1-.06-.04-.02-.08-.03-.11-.04-.04-.01-.09-.02-.13-.03h-.04s-.11,0-.11,0c-.29,0-.53-.23-.53-.52,0,0,0,0,0,0v-.24s0-.1.01-.14c0-.09.02-.19.05-.27l.05-.12c.04-.1.09-.19.15-.28.11-.22.34-.37.59-.38.11,0,.22,0,.33.02.11.01.22.04.32.07h.03c.09.04.19.07.28.12.1.05.2.1.29.16.07.05.13.1.19.15.04.04.09.09.13.13s.08.08.11.1c.27.07.44.33.39.6l-.03.17c.15-.4.43-.73.79-.94.39-.21.84-.28,1.27-.2.44.07.84.27,1.16.59.13.13.23.28.29.46.04.13.06.26.05.4,0,.04,0,.07,0,.1,0,.04-.02.09-.04.13-.03.09-.07.19-.11.27v.02h.01c.12,0,.23.01.35.04.07.02.14.05.21.08h.02c.22.28.28.65.15.97h0s-.1.2-.1.2c0,.03-.02.06-.03.09M17.33,45h-.72c-.29,0-.53-.24-.53-.53v-.24c0-.06,0-.11.03-.17,0-.08.02-.16.05-.24.04-.13.09-.26.16-.38.11-.24.35-.4.61-.4h1.71c.06-.01.12,0,.18,0l.09.02c.07.02.13.05.18.1.11.08.19.19.23.32l.02.06c.03.12.02.24-.02.36-.01.03-.02.06-.04.09l-.19.38-.07.17-.04.08-.02.29c0,.13,0,.26-.02.35,0,.13-.03.26-.05.38-.01.07-.03.15-.04.23l-.03.27c-.02.17-.03.34-.06.5-.03.19-.08.39-.15.57-.03.08-.07.15-.11.23-.04.07-.08.15-.12.22-.04.07-.08.14-.11.22-.11.27-.41.4-.68.3-.07-.03-.15-.06-.23-.09-.27-.11-.4-.41-.3-.68.04-.12.08-.24.1-.37.03-.16.04-.31.06-.47l.04-.31c.02-.12.03-.24.05-.33.01-.07.02-.13.02-.2h0c0-.1,0-.18,0-.25,0-.16,0-.31.01-.44v-.04ZM29.62,43.41c0-.24-.01-.49-.03-.76-.02-.24-.04-.49-.07-.75v-.03c-.02-.19.01-.37.11-.53.03-.06.07-.12.12-.18-.02-.11,0-.23.04-.34.1-.28.23-.54.4-.78h0c.08-.13.19-.21.32-.26h0c.16-.06.33-.05.48.02l.04.02c.49.24,1.04.44,1.59.64l.05.02c.28.1.57.21.89.34.19.07.37.16.54.25.15.08.33.17.5.27h0c.37.22.76.4,1.17.54l.07.03c.31.13.47.47.37.78,0,.03-.02.05-.03.08-.03.06-.06.12-.11.17,0,.04-.02.09-.04.13l-.02.05c-.05.13-.12.26-.2.38-.06.12-.16.21-.28.27h-.01c-.14.08-.31.09-.46.04h0c-.49-.17-.96-.39-1.41-.66-.02,0-.03-.02-.05-.03-.28-.16-.57-.3-.87-.43l-.44-.17-.46-.17c-.18-.07-.36-.14-.6-.23,0,.19.02.39.02.6,0,.28,0,.56-.01.84s-.03.56-.06.84c-.02.14-.06.28-.13.4-.04.08-.09.16-.15.23-.02.03-.04.06-.07.09-.05.26-.3.45-.57.42l-.24-.02c-.29-.03-.5-.28-.47-.57,0,0,0,0,0,0,.03-.26.05-.51.06-.77h0c.01-.27.02-.52.01-.77M42.07,36.23h0s.03.01.03.01h.01s-.04-.01-.04-.01ZM44.44,41.46s-.02,0,0,0h0ZM58.42,46.57l.16-.06.05-.02c.66-.23,1.39-.36,1.73.59.05.15.07.3.05.46-.02.13-.05.26-.1.39-.12.29-.36.5-.66.58-.92.15-1.86.08-2.75-.21-1.13-.29-2.24-.64-3.32-1.07-1.44-.56-2.59-1.2-2.71-1.55-.01-.04-.03-.09-.04-.13v-.02s-.04,0-.04,0c-.03,0-.05-.01-.08-.02-.29-.05-.55-.23-.71-.48l-.02-.04c-.13-.2-.18-.45-.13-.68h-.02s-.1.06-.16.09c-1.77.98-2.47.69-2.82.07-.13-.26-.2-.55-.22-.84-.02-.13.22-.17.09-.21h0s-.02,0-.03,0c-.06.03-.12.06-.17.1-.07.05-.13.09-.23.14-.1.06-.21.11-.33.14-.64-.1-1.27-.27-1.87-.49h-.02c-.4-.11-.76-.3-1.08-.55-.08-.12-.15-.25-.2-.38-.05-.14-.09-.28-.11-.42-.02-.12-.02-.25-.02-.38,0-.11.02-.21.05-.32v-.06s.03-.07.03-.07l.03-.08s-.09-.09-.12-.15c-.29-.42-.06-.75.17-1.08.02-.02.03-.05.05-.07.04-.05.08-.09.12-.13.04-.05.08-.09.14-.13l.2-.14c.21-.14.49-.11.67.07h0c.38.15.67.28.54,1.01v.03c-.02.07-.04.14-.07.2l-.2.38s.01.07.03.1c.02.05.04.1.07.14.03.05.07.11.11.15l.1-.03c.07-.02.15-.04.24-.06.27-.08.56-.07.82.03.17.08.32.21.43.36l.08-.05c.14-.08.3-.14.46-.18h.03c.15-.04.31-.05.46-.04.17,0,.34.04.49.1.25.09.45.27.58.49.12.21.17.46.16.7,0,.05,0,.1-.01.15l.06.02c.06.02.12.02.18.03.06,0,.13,0,.19-.03h.01c.14-.06.26-.13.38-.21.23-.15.48-.26.74-.34.24-.07.49-.1.74-.07.31.04.59.21.76.47l.02.04c.05.09.09.19.12.29.04.14.05.29.02.44v.03s.06.03.06.03c.16.06.3.15.42.27.09.1.16.21.21.34l.06.12c.06.14.13.26.23.38.05.04.11.06.17.04.68.15,1.35.34,2,.57,1.61.5,3.64,1.24,3.71,1.21h0ZM40.47,43.55c-.57.12-1.14.25-1.73.32l.06.38c.02.25-.05.5-.21.7l-.03.04s-.05.08-.07.12-.05.08-.08.11c-.07.15-.21.26-.37.29l-.27.04c-.29.04-.55-.16-.6-.44l-.14-.89c0-.05-.02-.11-.02-.2,0-.08-.01-.15,0-.23,0-.09.01-.19.03-.28.02-.1.05-.2.1-.29.11-.22.22-.43.33-.65.12-.26.43-.38.7-.26.11-.22.32-.36.56-.39h.01c.36-.04.73-.11,1.1-.18l-.02-.07c-.03-.12-.06-.23-.08-.36-.02-.12-.04-.25-.05-.37,0-.12,0-.25,0-.37.01-.12.04-.23.07-.34h0s.01-.07.02-.09l.06-.17c.04-.09.08-.18.12-.27.05-.14.12-.27.22-.39v-.1s.03-.06.03-.06c.02-.1.06-.19.11-.28.03-.06.05-.12.08-.18.12-.24.19-.5.2-.77,0-.05,0-.1-.02-.14-.02-.08-.03-.14-.05-.2v-.02c-.06-.18-.09-.36-.11-.54v-.17c0-.06,0-.11.01-.17l.02-.14v-.05s.01-.07.01-.07c0-.04.02-.08.04-.12v-.03c.04-.1.08-.2.12-.3.05-.11.11-.22.17-.32l.02-.03c.06-.09.13-.18.21-.26.09-.09.19-.17.3-.23.25-.14.57-.05.72.2,0,0,0,0,0,0l.12.22c.12.21.08.48-.1.64h.04s-.03.12-.03.12v.09c.03.07.05.15.06.23v.04c.1.32.13.66.09.99h0c-.02.11-.04.23-.07.34-.03.1-.07.2-.11.31s-.08.18-.12.26l-.08.16.02.05c.08.19.12.4.1.61v.09s-.02.07-.03.11c-.04.14-.1.26-.17.38-.02.04-.04.08-.06.12-.05.14-.12.26-.21.38l-.05.06s-.03.03-.05.04h0s.03.13.03.13c.07.26,0,.53-.16.73h.06c.29-.07.56.12.62.4l.05.24c.02.09.01.18-.02.26l-.08.25c-.03.12-.08.24-.14.35-.1.22-.3.38-.53.43-.22.04-.45.09-.68.14l-.08.02ZM.18,45.19c.03-.05.06-.11.08-.16.1-.25.24-.48.43-.67.29-.28.72-.37,1.1-.22.28.09.43.38.35.66l-.05.15c.02.12,0,.24-.04.35.71-1.26,1.48-2.52,2.21-3.77l-.02-.09c-.03-.14-.05-.29-.06-.44,0-.09,0-.19.01-.28,0-.07-.05-.12-.08-.18-.1-.15-.17-.31-.22-.48-.06-.22-.06-.45,0-.67,0,0,.01-.05,0-.05,0-.03.02-.06.03-.1h0c.02-.06.04-.12.07-.18s.05-.11.09-.18c.03-.05.06-.1.09-.16l.08-.13.05-.1-.05-.17c-.17-.42-.17-.89,0-1.31l.02-.05s.02-.06.03-.08c.12-.49.5-.87.98-1.01h0c.28-.07.57.11.63.39l.05.27c.01.08.01.16-.01.24l-.07.24c-.02.07-.04.14-.08.23v.03s0,.04,0,.04c.05.15.09.31.11.46.03.19.02.39-.02.58v.07s-.03.07-.04.1c-.07.18-.16.35-.26.51l-.08.12.09.14.02.04c.04.06.07.13.1.2.1.21.13.46.06.69v.09s0,.08.01.11v.04c.04.09.06.19.07.29.02.22-.02.45-.1.65-.06.16-.14.31-.22.45-.06.1-.11.21-.17.32-.53.98-1.11,1.95-1.69,2.91-.09.2-.32.53-.44.73l-.42.71c-.15.25-.47.33-.72.19l-.21-.12s-.09-.06-.12-.1l-.1.2.02.04c.14.22.14.5.02.72-.06.12-.14.24-.22.35l-.03.04s-.08.09-.12.13c-.04.06-.1.11-.16.15l-.21.13c-.25.15-.57.08-.72-.17l-.02-.03c-.06-.1-.11-.19-.16-.3v-.03c-.06-.1-.09-.21-.1-.32-.02-.11-.02-.21-.01-.32,0-.08.02-.16.04-.23v-.05s.02-.06.02-.06c.01-.04.03-.09.05-.13.04-.07.07-.14.1-.21-.1-.13-.16-.28-.19-.43v-.16s-.01-.1,0-.15c0-.05.02-.09.03-.13,0-.04.02-.08.04-.11.03-.08.07-.15.1-.23M24.15.87v.02s0,.02,0,.02c.1-.06.22-.09.34-.09.15,0,.3.06.42.15l.44.29c.33.21.66.43,1,.68.35.26.66.56.94.89l.02.04c.11.15.21.31.29.48.09.18.15.37.19.56.04.19.05.38.04.58h0c-.02.2-.06.38-.13.56v.03c-.07.13-.14.25-.22.36l-.03.04c-.07.09-.13.17-.19.25-.08.1-.16.2-.23.31-.02.03-.03.06-.03.09.06.12.14.22.24.3l.02.02c.2.17.4.34.62.49l.18.13.17.13.03.03c.42.35.94.77,1.45,1.19.08.07.17.13.25.21.11.09.23.19.36.29h.01c.59.49,1.17.97,1.74,1.49.58.52,1.12,1.08,1.62,1.68.4.49.79,1,1.18,1.54s.75,1.08,1.09,1.64.66,1.14.95,1.72c.29.59.55,1.19.78,1.81.51,1.51.92,3.06,1.21,4.63h0c.1.47.2.93.26,1.23s.14.63.23.97l.37.2c.23.13.43.24.57.32.18.11.38.22.6.35.18.11.37.23.59.38l.31.2c.34.22.68.45,1.01.71.35.27.67.59.93.95.22.31.38.65.47,1.01.09.36.11.74.07,1.12-.05.38-.16.76-.33,1.11-.17.36-.4.69-.67.99-1.03,1.14-2.49,1.57-3.83,1.96-.02,0-.04.01-.07.02-.27.06-.55,0-.76-.19-.15-.12-.29-.25-.42-.39-.08-.08-.16-.16-.23-.23-.15-.06-.27-.19-.32-.34l-.07-.24c-.08-.28.08-.57.36-.65.4-.12.82-.25,1.22-.39.39-.14.77-.31,1.13-.5.33-.18.63-.41.89-.67.25-.26.45-.57.58-.91.05-.14.09-.28.12-.42.02-.14.03-.28.02-.41h0c-.02-.27-.1-.53-.23-.75l-.08-.12-.09-.11-.1-.12c-.05-.05-.1-.11-.16-.16-.24-.17-.49-.32-.76-.45l-.71-.38c-.18-.1-.36-.19-.6-.33h0c-.19-.11-.38-.21-.56-.32l-.04-.02s-.06-.03-.08-.05l-.08-.06c-.1-.06-.2-.12-.3-.18-.34-.17-.64-.41-.89-.7l-.03-.04c-.11-.18-.19-.37-.23-.58v-.02c-.05-.19-.08-.38-.1-.54-.02-.11-.03-.21-.06-.32-.09-.39-.17-.76-.25-1.13l-.31-1.46c-.09-.38-.16-.72-.23-.99-.19-.8-.44-1.58-.73-2.35-.29-.76-.63-1.5-1.01-2.22-.38-.72-.8-1.43-1.26-2.1-.45-.67-.95-1.34-1.48-1.99-1.11-1.27-2.35-2.41-3.7-3.42l-.05-.04c-.28-.22-.55-.44-.91-.74-.47-.39-.94-.81-1.43-1.19-.51-.3-.84-.81-.9-1.4,0-.26.07-.52.2-.75.1-.18.22-.35.35-.51l.02-.03c.14-.14.23-.32.27-.51,0-.04,0-.07,0-.11,0-.04-.02-.08-.03-.12v-.04s-.05-.1-.05-.1c-.02-.05-.04-.09-.07-.13-.03-.05-.07-.11-.1-.16-.02-.02-.14-.17-.15-.17-.1-.1-.21-.19-.32-.27l-.03-.03s-.06-.04-.08-.07l-.26-.18s-.09-.07-.14-.11l-.09-.06-.05-.04c-.09-.07-.15-.17-.19-.28-.14.28-.47.41-.77.31h0s-.08,0-.11.02c-.12.11-.23.24-.31.38-.06.09-.12.17-.21.28-.25.28-.55.51-.89.67h0s.07.07.1.11c.1.09.22.17.34.25.13.08.26.15.38.21l.04.02c.13.07.24.18.3.32l.02.06c.05.16.04.33-.03.48-.04.08-.08.15-.12.23-.05.11-.1.24-.17.35-.09.19-.25.35-.44.43-.12.04-.24.08-.34.12s-.19.07-.27.11h-.02c-.08.05-.15.09-.22.14.02.05.04.08.05.13,0,.03.02.06.02.1v.04c0,.12-.02.24-.06.35v.03c-.05.09-.1.2-.15.31-.03.07-.07.13-.11.21l-.08.13s-.05.07-.07.11c-.02.02-.04.04-.06.06-.06.05-.12.09-.2.12-.03.01-.05.02-.08.03-.04,0-.08.02-.12.02-.56.05-1.11.17-1.64.37-.6.23-1.17.53-1.71.89-.63.42-1.22.9-1.77,1.42-.63.6-1.21,1.24-1.75,1.92-.1.13-.2.26-.3.39s-.19.26-.27.37l-.02.03c-.1.14-.19.28-.27.42-.09.14-.17.28-.26.43-.16.28-.5.4-.8.28l-.07-.03c-.31-.16-.43-.54-.28-.85v-.03c.22-.38.43-.75.66-1.11.23-.36.47-.72.72-1.05.25-.34.52-.67.81-1,.28-.32.58-.64.9-.94.39-.37.79-.75,1.23-1.12.43-.37.89-.71,1.36-1.02.47-.31.96-.57,1.48-.79.43-.18.87-.32,1.32-.42,0-.03.02-.05.03-.08.04-.08.07-.16.11-.24.05-.1.16-.28.21-.39.02-.04.04-.08.07-.12l.04-.05.03-.04c.04-.06.08-.11.12-.15-.05-.05-.09-.11-.14-.17-.12-.17-.21-.36-.26-.57-.05-.22-.06-.45-.02-.67.02-.11.05-.22.09-.32.03-.1.07-.19.12-.28.04-.09.09-.17.13-.25.06-.1.11-.19.16-.28.03-.06.07-.12.12-.17l.06-.05c.11-.12.23-.23.37-.31.13-.08.26-.16.39-.23h0c.14-.07.27-.15.4-.25.11-.11.21-.24.3-.37.17-.28.39-.52.65-.72.34-.25.79-.31,1.19-.17h.05c.28.1.43.4.34.68,0,0,0,0,0,0l-.04.12Z" fill="#fbfbfb"/>
    </g>
  </g>
</svg>